<svg xmlns="http://www.w3.org/2000/svg" viewBox="0 0 280 280"><path fill="#ff8300" d="M 38.302 122.345 C 38.17 124.605 37.917 126.855 37.905 129.105 C 37.905 149.445 37.905 169.775 37.905 190.105 C 37.905 199.225 31.139 206.375 22.202 207.205 C 11.468 208.205 3.158 203.205 0.547 194.205 C 0.196 192.916 0.025 191.592 0.04 190.265 C 0.04 161.105 -0.049 131.945 0.04 102.785 C 0.04 89.865 9.109 78.175 21.331 74.595 C 33.067 71.145 43.845 73.315 52.397 80.865 C 63.032 90.255 72.807 100.455 82.671 110.535 C 99.378 127.595 115.819 144.865 132.45 161.995 C 138.411 168.145 141.2 168.135 147.448 161.685 C 169.886 138.545 192.264 115.362 214.584 92.135 C 217.483 89.135 220.338 86.065 223.4 83.235 C 233.418 74.115 245.266 70.505 258.963 74.905 C 272.254 79.175 278.668 88.705 279.109 100.905 C 279.891 122.545 279.858 144.205 279.98 165.855 C 279.98 174.665 280.2 183.535 279.207 192.285 C 278.029 202.585 269.587 208.065 257.961 207.225 C 248.913 206.585 241.43 198.735 241.342 189.565 C 241.253 168.895 241.342 148.235 241.342 127.565 L 241.342 122.385 L 239.854 121.875 C 236.548 125.115 233.242 128.305 230.079 131.605 C 209.823 152.495 189.248 173.135 169.467 194.415 C 157.345 207.485 140.649 209.995 126.488 205.175 C 121.083 203.204 116.254 200.124 112.381 196.175 C 89.305 172.875 66.636 149.255 43.824 125.755 C 42.523 124.415 41.123 123.165 39.768 121.875 L 38.302 122.345 Z"></path></svg>